<?xml version="1.0" standalone="no"?>
<!DOCTYPE svg PUBLIC "-//W3C//DTD SVG 20010904//EN"
 "http://www.w3.org/TR/2001/REC-SVG-20010904/DTD/svg10.dtd">
<svg version="1.0" xmlns="http://www.w3.org/2000/svg"
 width="225.000000pt" height="225.000000pt" viewBox="0 0 225.000000 225.000000"
 preserveAspectRatio="xMidYMid meet">

<g transform="translate(0.000000,225.000000) scale(0.100000,-0.100000)"
fill="#000000" stroke="none">
<path d="M970 2213 c-123 -19 -270 -69 -377 -129 l-63 -35 0 -109 c0 -61 2
-110 5 -110 2 0 28 18 56 39 69 52 197 115 289 141 94 27 310 38 402 21 340
-65 609 -295 718 -614 115 -338 23 -710 -236 -958 -116 -110 -232 -177 -390
-225 -79 -24 -106 -27 -239 -28 -155 0 -205 8 -335 55 -124 45 -284 157 -366
255 -155 186 -224 375 -224 611 0 121 19 226 61 332 31 78 107 208 134 231 30
25 13 30 -95 30 l-109 0 -35 -62 c-119 -215 -164 -485 -121 -729 69 -394 361
-731 740 -852 136 -44 191 -52 355 -51 133 1 169 5 252 27 202 53 372 150 514
292 422 422 431 1104 20 1534 -166 173 -365 282 -598 326 -73 14 -291 19 -358
8z"/>
<path d="M657 1592 c-38 -42 -8 -102 49 -102 38 0 54 16 54 55 0 57 -67 87
-103 47z"/>
<path d="M802 1582 c30 -78 -56 -164 -134 -134 -26 9 -28 8 -28 -14 0 -17 7
-25 25 -30 14 -3 37 -20 51 -37 22 -26 25 -38 21 -74 -5 -51 -20 -71 -64 -90
l-33 -13 0 -280 0 -280 418 0 c384 0 420 2 457 19 48 22 78 54 94 100 7 23 11
165 11 447 l0 414 -285 0 c-282 0 -285 0 -285 -21 0 -11 -13 -34 -29 -50 -52
-52 -148 -32 -172 36 -10 26 -19 35 -35 35 -20 0 -21 -3 -12 -28z m385 -62
c20 -12 35 -31 41 -52 29 -108 -88 -182 -170 -109 -28 25 -33 36 -33 76 0 40
5 51 33 76 39 35 82 38 129 9z m-254 -61 c73 -38 76 -148 6 -185 -48 -24 -87
-18 -125 20 -36 36 -44 74 -23 119 22 48 93 71 142 46z m180 -180 c38 -19 57
-51 57 -97 0 -81 -77 -126 -155 -90 -32 14 -55 56 -55 99 0 43 56 99 100 99
17 0 41 -5 53 -11z m-220 -89 c71 -79 -4 -197 -108 -169 -68 19 -97 108 -54
163 44 55 115 58 162 6z m553 -181 c80 -38 112 -125 74 -203 -39 -82 -125
-115 -204 -76 -119 57 -121 221 -3 279 53 26 80 26 133 0z"/>
<path d="M1090 1482 c-43 -34 -17 -112 37 -112 30 0 63 34 63 65 0 30 -32 65
-59 65 -10 0 -29 -8 -41 -18z"/>
<path d="M841 1404 c-27 -34 -26 -50 4 -79 30 -31 55 -32 83 -2 27 29 28 61 2
87 -28 28 -64 25 -89 -6z"/>
<path d="M1025 1225 c-30 -29 -31 -45 -4 -79 25 -31 61 -34 89 -6 28 28 25 64
-6 89 -34 27 -50 26 -79 -4z"/>
<path d="M792 1179 c-53 -20 -51 -101 3 -115 59 -15 104 41 72 90 -18 28 -44
36 -75 25z"/>
<path d="M1321 966 c-69 -38 -67 -162 4 -194 82 -37 165 12 165 98 0 87 -92
139 -169 96z"/>
<path d="M891 1588 c23 -44 66 -51 99 -18 33 33 24 40 -45 40 -65 0 -66 0 -54
-22z"/>
<path d="M640 1300 c0 -64 8 -72 40 -40 24 24 25 48 4 78 -29 41 -44 28 -44
-38z"/>
</g>
</svg>
